# xmcd
#
# Track frame offsets:
#	150
#	24627
#	46525
#	59679
#	84068
#	105971
#	125129
#	147745
#	169255
#	199014
#
# Disc length: 2904 seconds
#
# Revision: 1
# Processed by: cddbd v1.4PL0 Copyright (c) Steve Scherf et al.
# Submitted via: audiograbber 1.82.02
#
DISCID=850b560a
DTITLE=John Earl Walker Band - I'm Leavin' You
DYEAR=2003
DGENRE=Blues
TTITLE0=Gonna Miss Me
TTITLE1=I'm Leavin' You
TTITLE2=I Put You First
TTITLE3=My First Guitar
TTITLE4=I Turn To You
TTITLE5=Second Hand Man
TTITLE6=Sad Sad Day
TTITLE7=Treat Me Right
TTITLE8=The Last Time
TTITLE9=My Baby's Got Plans
EXTD=
EXTT0=
EXTT1=
EXTT2=
EXTT3=
EXTT4=
EXTT5=
EXTT6=
EXTT7=
EXTT8=
EXTT9=
PLAYORDER=
